<?xml version="1.0" standalone="no"?>
<!DOCTYPE svg PUBLIC "-//W3C//DTD SVG 20010904//EN"
 "http://www.w3.org/TR/2001/REC-SVG-20010904/DTD/svg10.dtd">
<svg version="1.0" xmlns="http://www.w3.org/2000/svg"
 width="174.000000pt" height="100.000000pt" viewBox="0 0 174.000000 100.000000"
 preserveAspectRatio="xMidYMid meet">

<g transform="translate(0.000000,100.000000) scale(0.100000,-0.100000)"
fill="#000000" stroke="none">
<path d="M46 954 c-14 -14 -16 -70 -16 -464 0 -434 1 -450 19 -460 13 -7 289
-10 825 -10 718 0 806 2 820 16 14 14 16 70 16 464 0 434 -1 450 -19 460 -13
7 -289 10 -825 10 -718 0 -806 -2 -820 -16z m1534 -42 c0 -29 28 -60 60 -67
l30 -7 0 -343 0 -343 -30 -7 c-32 -7 -60 -38 -60 -67 0 -17 -36 -18 -710 -18
-674 0 -710 1 -710 18 0 29 -28 60 -60 67 l-30 7 0 341 0 342 40 17 c31 13 42
23 46 47 l7 31 708 0 c673 0 709 -1 709 -18z"/>
<path d="M181 878 c-10 -26 -37 -52 -63 -61 -17 -6 -18 -30 -18 -322 0 -292 1
-316 18 -322 26 -9 53 -35 63 -60 l9 -23 680 0 680 0 10 25 c5 14 26 35 45 46
l35 21 0 314 c0 291 -1 315 -17 321 -27 9 -54 35 -64 61 l-9 22 -680 0 -680 0
-9 -22z m831 -85 c114 -51 188 -168 188 -298 0 -131 -68 -238 -188 -297 -57
-28 -76 -33 -142 -33 -66 0 -85 5 -142 33 -120 59 -188 166 -188 297 0 244
246 400 472 298z"/>
<path d="M700 734 c-16 -42 -13 -44 63 -44 59 0 77 -4 90 -18 10 -10 17 -22
17 -25 0 -4 -36 -7 -80 -7 -77 0 -81 -1 -90 -26 -6 -14 -10 -27 -10 -30 0 -2
41 -4 90 -4 50 0 90 -4 90 -8 0 -25 -45 -46 -106 -50 -62 -4 -64 -5 -64 -31 1
-18 10 -32 33 -46 17 -11 65 -64 106 -117 l76 -98 57 0 c32 0 58 2 58 5 0 3
-38 55 -85 116 -81 105 -92 129 -60 129 20 0 75 50 86 77 6 16 16 23 34 23 18
0 28 7 35 26 14 35 14 34 -24 34 -26 0 -35 5 -40 23 -8 32 -8 32 21 35 31 2
38 8 48 40 l6 22 -171 0 -170 0 -10 -26z"/>
</g>
</svg>
