<?xml version="1.0" standalone="no"?>
<!DOCTYPE svg PUBLIC "-//W3C//DTD SVG 20010904//EN"
 "http://www.w3.org/TR/2001/REC-SVG-20010904/DTD/svg10.dtd">
<svg version="1.0" xmlns="http://www.w3.org/2000/svg"
 width="32.000000pt" height="32.000000pt" viewBox="0 0 32.000000 32.000000"
 preserveAspectRatio="xMidYMid meet">

<g transform="translate(0.000000,32.000000) scale(0.100000,-0.100000)"
fill="#000000" stroke="none">
<path d="M189 264 c-12 -20 -37 -43 -56 -50 -18 -8 -43 -30 -55 -49 -14 -21
-34 -37 -51 -41 -18 -4 -27 -11 -23 -19 3 -8 10 -32 16 -54 12 -46 26 -50 60
-21 13 11 31 20 40 20 10 0 23 7 30 15 9 11 17 12 31 5 16 -9 26 0 71 67 29
43 56 82 60 89 7 11 -70 74 -90 74 -6 0 -20 -16 -33 -36z m111 -33 c0 -3 -9
-17 -18 -29 l-18 -24 -17 26 c-10 14 -26 26 -37 26 -24 0 -25 4 -4 35 l16 24
39 -26 c21 -14 39 -28 39 -32z m-67 -32 c6 -9 7 -25 2 -35 -5 -13 -9 -15 -12
-6 -3 7 -16 18 -30 23 -21 8 -23 12 -13 25 16 18 39 15 53 -7z m-93 -4 c0 -3
-6 -14 -12 -25 -20 -31 8 -44 40 -19 28 21 47 16 32 -9 -26 -44 -60 -74 -93
-82 -36 -8 -37 -7 -43 26 -5 25 -1 41 17 66 13 18 28 36 34 40 12 9 25 10 25
3z m19 -31 c-17 -21 -31 -17 -17 5 7 11 16 17 20 14 5 -2 4 -11 -3 -19z m71
-31 c-1 -15 -39 -58 -45 -51 -8 8 24 58 36 58 5 0 9 -3 9 -7z m-177 -63 c5
-20 4 -37 -2 -43 -6 -6 -13 4 -20 29 -14 50 -14 57 1 52 7 -3 16 -19 21 -38z"/>
<path d="M240 240 c0 -5 5 -10 10 -10 6 0 10 5 10 10 0 6 -4 10 -10 10 -5 0
-10 -4 -10 -10z"/>
</g>
</svg>
