<?xml version="1.0" standalone="no"?>
<!DOCTYPE svg PUBLIC "-//W3C//DTD SVG 20010904//EN"
 "http://www.w3.org/TR/2001/REC-SVG-20010904/DTD/svg10.dtd">
<svg version="1.0" xmlns="http://www.w3.org/2000/svg"
 width="128.000000pt" height="128.000000pt" viewBox="0 0 128.000000 128.000000"
 preserveAspectRatio="xMidYMid meet">

<g transform="translate(0.000000,128.000000) scale(0.100000,-0.100000)"
fill="#000000" stroke="none">
<path d="M975 1226 c-44 -18 -103 -41 -132 -51 l-52 -18 -54 41 -54 42 -106 0
c-59 0 -107 -2 -107 -6 0 -3 27 -52 60 -109 33 -57 60 -106 60 -109 0 -4 -11
-6 -24 -6 -34 0 -69 -46 -61 -80 4 -14 13 -32 21 -41 12 -13 9 -20 -27 -55
-56 -54 -123 -149 -159 -226 -30 -63 -31 -65 -70 -66 -81 -3 -163 -54 -206
-128 -32 -54 -44 -160 -25 -217 41 -124 178 -202 306 -175 27 6 59 17 70 24
18 12 28 11 75 -8 47 -18 81 -22 232 -26 262 -6 360 18 443 109 68 76 80 111
80 239 -1 99 -4 125 -27 188 -34 94 -77 165 -156 257 l-62 73 17 29 c29 51 10
85 -59 107 -15 4 -12 15 25 78 115 196 116 184 -8 134z m-253 -83 l60 -47 71
26 c40 14 80 29 90 33 15 6 13 -3 -14 -51 -48 -88 -43 -85 -165 -87 l-108 -2
-48 83 c-26 46 -48 86 -48 88 0 2 23 4 51 4 45 0 57 -5 111 -47z m252 -192
c16 -26 -27 -31 -215 -29 -175 3 -194 5 -197 21 -3 16 12 17 202 17 113 0 207
-4 210 -9z m27 -160 c135 -143 192 -271 193 -431 1 -87 -1 -99 -28 -148 -32
-56 -72 -92 -138 -122 -38 -17 -67 -20 -253 -20 -183 0 -285 9 -285 26 0 2 11
21 25 42 84 128 32 315 -105 377 -22 10 -40 22 -40 27 0 19 60 127 104 184 25
33 66 80 90 102 l46 42 159 0 159 0 73 -79z m-634 -313 c86 -37 133 -107 133
-196 0 -65 -17 -108 -60 -150 -104 -105 -278 -72 -341 63 -63 135 42 294 193
295 26 0 60 -5 75 -12z"/>
<path d="M740 685 c0 -14 -3 -25 -7 -26 -84 -9 -113 -37 -113 -109 0 -37 6
-56 24 -77 23 -26 31 -28 118 -33 l93 -5 0 -45 0 -45 -87 -3 -88 -3 0 26 c0
21 -5 25 -30 25 -25 0 -30 -4 -30 -24 0 -38 36 -75 81 -82 32 -5 39 -11 39
-29 0 -16 7 -24 25 -27 22 -5 25 -2 25 22 0 24 5 28 36 33 59 10 84 41 84 103
0 41 -5 59 -24 81 -23 26 -30 28 -116 32 l-91 3 3 47 3 46 82 3 c81 3 83 2 89
-23 4 -18 13 -25 30 -25 20 0 24 5 24 28 0 36 -34 68 -82 77 -31 6 -38 11 -38
31 0 19 -5 24 -25 24 -20 0 -25 -5 -25 -25z"/>
<path d="M197 373 c-16 -16 -15 -19 20 -55 l37 -38 -37 -38 c-37 -38 -37 -39
-18 -56 19 -17 21 -16 55 20 l36 38 38 -37 c38 -37 39 -37 56 -18 17 19 16 21
-21 54 l-38 36 39 35 c40 35 40 35 21 56 l-19 21 -38 -38 -39 -38 -34 38 c-18
20 -35 37 -37 37 -2 0 -11 -8 -21 -17z"/>
</g>
</svg>
