<?xml version="1.0" standalone="no"?>
<!DOCTYPE svg PUBLIC "-//W3C//DTD SVG 20010904//EN"
 "http://www.w3.org/TR/2001/REC-SVG-20010904/DTD/svg10.dtd">
<svg version="1.0" xmlns="http://www.w3.org/2000/svg"
 width="225.000000pt" height="225.000000pt" viewBox="0 0 225.000000 225.000000"
 preserveAspectRatio="xMidYMid meet">

<g transform="translate(0.000000,225.000000) scale(0.100000,-0.100000)"
fill="#000000" stroke="none">
<path d="M1650 2129 c-129 -49 -242 -90 -250 -91 -8 -1 -56 30 -106 70 l-91
72 -192 0 -193 0 29 -52 c16 -29 66 -117 111 -195 45 -78 82 -144 82 -147 0
-3 -14 -6 -30 -6 -104 0 -160 -125 -91 -202 l29 -33 -77 -80 c-42 -44 -98
-110 -125 -146 -67 -91 -153 -243 -173 -306 -16 -51 -18 -53 -53 -53 -158 0
-312 -86 -400 -222 -83 -128 -94 -302 -26 -443 62 -131 180 -227 317 -256 29
-6 92 -9 140 -7 72 5 98 11 157 40 l71 34 45 -23 c93 -47 146 -53 526 -53 328
0 361 2 430 21 193 52 348 208 405 404 24 81 16 295 -15 410 -63 234 -181 436
-358 611 -34 34 -62 64 -62 67 0 3 11 17 24 30 71 71 24 194 -79 207 l-45 5
51 90 c59 103 153 264 181 313 11 17 16 32 11 31 -4 0 -114 -41 -243 -90z
m-382 -119 c55 -44 104 -80 109 -80 5 0 75 25 157 56 81 30 149 54 150 52 2
-2 -29 -59 -69 -128 l-71 -125 -196 -3 -196 -2 -83 147 c-46 81 -85 151 -87
155 -2 5 39 8 91 8 l95 0 100 -80z m441 -334 c15 -18 4 -45 -23 -51 -11 -3
-171 -4 -355 -3 -294 3 -335 5 -344 19 -6 9 -7 24 -4 33 6 14 42 16 360 16
288 0 357 -3 366 -14z m8 -238 c250 -245 372 -492 390 -788 15 -253 -127 -451
-368 -515 -42 -12 -131 -15 -395 -15 -315 0 -347 2 -408 20 -36 11 -68 24 -71
29 -2 5 12 35 34 67 156 238 69 553 -186 675 -35 17 -63 36 -63 43 0 27 108
225 164 301 33 44 103 124 156 178 l97 97 278 0 278 0 94 -92z m-1045 -610
c145 -67 236 -237 209 -391 -23 -128 -95 -225 -211 -281 -59 -28 -74 -31 -160
-30 -108 0 -160 18 -235 80 -193 158 -170 476 43 601 77 45 111 53 207 50 72
-2 102 -8 147 -29z"/>
<path d="M1300 1200 l0 -50 -47 0 c-57 0 -109 -24 -137 -63 -29 -39 -31 -198
-3 -240 37 -58 68 -67 220 -67 168 0 177 -5 177 -99 0 -85 -11 -91 -163 -91
-138 0 -157 7 -157 55 l0 35 -51 0 -52 0 7 -46 c11 -87 67 -134 156 -134 l50
0 0 -50 0 -50 44 0 45 0 3 48 3 47 63 6 c56 5 68 11 100 43 l37 36 0 104 c0
98 -2 106 -25 131 -46 49 -69 55 -210 55 -72 0 -140 5 -151 10 -16 9 -19 22
-19 85 0 63 3 76 19 85 11 5 74 10 140 10 108 0 123 -2 141 -20 11 -11 20 -31
20 -45 0 -23 4 -25 46 -25 l47 0 -5 50 c-8 82 -67 130 -158 130 l-50 0 0 50 0
50 -45 0 -45 0 0 -50z"/>
<path d="M562 537 l-152 -152 -50 50 -50 49 -32 -32 -33 -32 83 -83 82 -82
185 185 186 186 -33 32 -34 32 -152 -153z"/>
</g>
</svg>
